# xmcd
#
# Track frame offsets:
#	182
#	15422
#	31387
#	46957
#	61940
#	79732
#	97577
#	109947
#	125347
#	143525
#	154657
#	168295
#	182815
#	201847
#	220862
#	234012
#	247230
#	256520
#	267307
#	282480
#
# Disc length: 3903 seconds
#
# Revision: 0
# Processed by: cddbd v1.5.2PL0 Copyright (c) Steve Scherf et al.
# Submitted via: EasyCDDAExtractor 15.3.0.1
#
DISCID=050f3d14
DTITLE=Lissette - Canciones Con Historia - Sus 20 Grandes Exitos
DYEAR=1991
DGENRE=Latin
TTITLE0=Hablame De El
TTITLE1=Justo Yo
TTITLE2=Quiereme Tengo Frio
TTITLE3=Poema No. 20
TTITLE4=Martes 2 De La Tarde
TTITLE5=Carta De Un Leon A Otro
TTITLE6=Cabecita Loca
TTITLE7=Los Dos A Puerta Cerrada
TTITLE8=La Unica Que Amo
TTITLE9=Entre Las Flores
TTITLE10=Lazos Azules Y Rosas
TTITLE11=Debut Y Despedida
TTITLE12=Lo Voy A Dividir
TTITLE13=Te Propongo
TTITLE14=La Muchacha De Los Ojos Tristes
TTITLE15=Love Story
TTITLE16=Yo
TTITLE17=Un Sabado Mas
TTITLE18=Usted Abuso
TTITLE19=Somewhere My Love
EXTD=
EXTT0=
EXTT1=
EXTT2=
EXTT3=
EXTT4=
EXTT5=
EXTT6=
EXTT7=
EXTT8=
EXTT9=
EXTT10=
EXTT11=
EXTT12=
EXTT13=
EXTT14=
EXTT15=
EXTT16=
EXTT17=
EXTT18=
EXTT19=
PLAYORDER=
